<svg version="1.1" id="Слой_1" xmlns="http://www.w3.org/2000/svg" x="0" y="0" viewBox="0 0 2019 1542" xml:space="preserve"><style>.st0{opacity:6.556920e-02;fill:none;stroke:#979797;stroke-width:3;enable-background:new}</style><path class="st0" d="M468.5 1478.5c246.3 0 446-199.7 446-446s-199.7-446-446-446-446 199.7-446 446 199.7 446 446 446z"/><path class="st0" d="M447.5 933.5c246.3 0 446-199.7 446-446s-199.7-446-446-446-446 199.7-446 446 199.7 446 446 446zM1571.5 1540.5c246.3 0 446-199.7 446-446s-199.7-446-446-446-446 199.7-446 446 199.7 446 446 446z"/><path class="st0" d="M1380.5 893.5c246.3 0 446-199.7 446-446s-199.7-446-446-446-446 199.7-446 446 199.7 446 446 446z"/></svg>