<svg xmlns="http://www.w3.org/2000/svg" style="position:absolute; width: 0; height: 0"><defs><filter id="telegram-Adobe_OpacityMaskFilter" filterUnits="userSpaceOnUse" x="0" y="0" width="21" height="21"> <feColorMatrix values="1 0 0 0 0 0 1 0 0 0 0 0 1 0 0 0 0 0 1 0"></feColorMatrix></filter></defs><symbol viewBox="0 0 12.4 14.2" id="icon-adult"><path d="M6.6 7.3c1.8-.2 3.3-1.7 3.3-3.6 0-2-1.7-3.7-3.7-3.7S2.5 1.6 2.5 3.7c0 1.9 1.4 3.4 3.3 3.6C.1 7.6 0 13.6 0 13.6c0 .3.3.6.6.6h11.2c.3 0 .6-.3.6-.6 0 0-.1-6-5.8-6.3zM3.7 3.7c0-1.4 1.1-2.5 2.5-2.5s2.5 1.1 2.5 2.5-1.1 2.5-2.5 2.5S3.7 5 3.7 3.7zM1.2 13c.2-1.4 1-4.5 5-4.5 3.9 0 4.8 3.2 5 4.5h-10z"></path></symbol><symbol viewBox="0 0 12 20" id="icon-arrow-left"><path d="M10 19.5c-.4 0-.8-.1-1.1-.4l-8-8C.3 10.5.3 9.6.9 9l8-8C9.5.4 10.4.4 11 1c.6.6.6 1.5 0 2.1L4.1 10l6.9 6.9c.6.6.6 1.5 0 2.1-.2.4-.6.5-1 .5z"></path></symbol><symbol viewBox="0 0 12 20" id="icon-arrow-right"><path d="M2 19.5c-.4 0-.8-.1-1.1-.4-.6-.6-.6-1.5 0-2.1l7-7-7-6.9C.3 2.5.3 1.6.9 1 1.5.4 2.4.4 3 1l8 8c.6.6.6 1.5 0 2.1l-8 8c-.2.3-.6.4-1 .4z"></path></symbol><symbol viewBox="0 0 21 14" id="icon-behance"><path fill-rule="evenodd" d="M7.773 9.092a1.646 1.646 0 0 1-.836 1.659 2.585 2.585 0 0 1-1.3.242H2.925v-3.53h2.77a2.38 2.38 0 0 1 1.241.212c.55.247.886.815.837 1.417zm9.609-3.438c.368.43.581.972.606 1.538h-4.1a3.249 3.249 0 0 1 .634-1.478 1.774 1.774 0 0 1 1.443-.543 2.238 2.238 0 0 1 1.417.479v.004zM.011.013v13.3h5.714c.61.001 1.217-.05 1.818-.151a4.24 4.24 0 0 0 1.413-.724c.374-.275.689-.624.924-1.025.375-.64.574-1.37.577-2.112a3.852 3.852 0 0 0-.52-1.96A3.07 3.07 0 0 0 8.5 6.136a2.17 2.17 0 0 0 .923-.754c.45-.551.677-1.25.635-1.961a3.49 3.49 0 0 0-.577-1.99A3.782 3.782 0 0 0 6.163.013H.011zm12.7 4.4a5.392 5.392 0 0 0-1.27 3.8 4.858 4.858 0 0 0 1.356 3.861 5.031 5.031 0 0 0 3.232 1.117 4.279 4.279 0 0 0 3.434-1.358c.461-.468.764-1.07.865-1.719H17.9a1.323 1.323 0 0 1-.49.633 2.254 2.254 0 0 1-2.626.061 2.208 2.208 0 0 1-.952-1.991H20.5c.003-.625-.036-1.25-.115-1.87a5.612 5.612 0 0 0-.721-1.991 4.153 4.153 0 0 0-1.559-1.418 5.421 5.421 0 0 0-2.135-.422 4.225 4.225 0 0 0-3.262 1.301l.003-.004zm.663-3.861v1.357h5.079V.552h-5.079zM6.997 4.896a2.6 2.6 0 0 1-1.356.331H2.929V2.301h2.4a5 5 0 0 1 1.5.212c.474.219.753.718.693 1.236.047.451-.155.892-.528 1.151l.003-.004z"></path></symbol><symbol viewBox="0 0 17 15" id="icon-blog"><path clip-rule="evenodd" d="M9.856 2.623a.377.377 0 0 0-.234.082L7.304 4.491a.378.378 0 0 0 .451.605l.01-.007 2.318-1.786a.379.379 0 0 0-.227-.68zM3.473 5.13c-1.129 0-1.84.828-1.964 1.696a.376.376 0 0 0 .313.432.376.376 0 0 0 .432-.313l.002-.013c.081-.571.43-1.046 1.217-1.046h1.535a.377.377 0 1 0 .013-.755H3.473zm11.343 1.71a.378.378 0 0 0-.01.755h1.545a.377.377 0 1 0 .009-.755h-1.544zm.259-4.583a.38.38 0 0 0-.266.1l-1.482 1.32a.377.377 0 1 0 .494.57c.003-.002.005-.005.008-.006l1.482-1.32a.377.377 0 0 0-.236-.663zm-1.485 7.84a.378.378 0 0 0-.264.663l1.483 1.319a.377.377 0 1 0 .509-.556l-.007-.007-1.483-1.32a.372.372 0 0 0-.239-.1z"></path><mask id="blog-a" maskUnits="userSpaceOnUse" x="0" y="0" width="14" height="15"><path fill-rule="evenodd" clip-rule="evenodd" d="M0 0h13.911v14.493H0V0z" fill="#fff"></path></mask><g mask="url(#blog-a)"><path clip-rule="evenodd" d="M11.833 8.568h-.325l.012-2.645h.313c.728 0 1.323.596 1.323 1.324 0 .727-.595 1.321-1.323 1.321zm-5.236 1.636v-5.86l4.153-3.193.003 12.198-4.156-3.145zm-.755-.253H3.388c-.908 0-1.54-.33-1.974-.825C.981 8.63.755 7.956.755 7.274c0-.682.226-1.357.659-1.852.434-.495 1.066-.826 1.974-.826h2.454v5.355zm5.991-4.782h-.31L11.508.38a.39.39 0 0 0-.113-.27.386.386 0 0 0-.274-.109.38.38 0 0 0-.222.08L6.014 3.84H3.388c-1.099 0-1.972.433-2.542 1.083C.276 5.575 0 6.427 0 7.274c0 .846.278 1.696.846 2.35.859.985 2.094 1.082 2.542 1.082h2.625l4.883 3.71a.375.375 0 0 0 .396.04.383.383 0 0 0 .155-.139.38.38 0 0 0 .057-.199V9.323h.329c1.14 0 2.078-.936 2.078-2.076a2.087 2.087 0 0 0-2.078-2.078z"></path></g></symbol><symbol viewBox="0 0 12 15" id="icon-calendar"><path d="M10 2V.5c0-.3-.2-.5-.5-.5S9 .2 9 .5V2H3V.5c0-.3-.2-.5-.5-.5S2 .2 2 .5V2C.9 2 0 2.9 0 4v9c0 1.1.9 2 2 2h8c1.1 0 2-.9 2-2V4c0-1.1-.9-2-2-2zm1 11c0 .6-.4 1-1 1H2c-.6 0-1-.4-1-1V7h10v6zM1 6V4c0-.6.4-1 1-1v1.5c0 .3.2.5.5.5s.5-.2.5-.5V3h6v1.5c0 .3.2.5.5.5s.5-.2.5-.5V3c.6 0 1 .4 1 1v2H1z"></path><path d="M8.5 9h1c.3 0 .5-.2.5-.5S9.8 8 9.5 8h-1c-.3 0-.5.2-.5.5s.2.5.5.5zm0 2h1c.3 0 .5-.2.5-.5s-.2-.5-.5-.5h-1c-.3 0-.5.2-.5.5s.2.5.5.5zm0 2h1c.3 0 .5-.2.5-.5s-.2-.5-.5-.5h-1c-.3 0-.5.2-.5.5s.2.5.5.5zm-3-4h1c.3 0 .5-.2.5-.5S6.8 8 6.5 8h-1c-.3 0-.5.2-.5.5s.2.5.5.5zm0 2h1c.3 0 .5-.2.5-.5s-.2-.5-.5-.5h-1c-.3 0-.5.2-.5.5s.2.5.5.5zm0 2h1c.3 0 .5-.2.5-.5s-.2-.5-.5-.5h-1c-.3 0-.5.2-.5.5s.2.5.5.5zm-3-4h1c.3 0 .5-.2.5-.5S3.8 8 3.5 8h-1c-.3 0-.5.2-.5.5s.2.5.5.5zm0 2h1c.3 0 .5-.2.5-.5s-.2-.5-.5-.5h-1c-.3 0-.5.2-.5.5s.2.5.5.5zm0 2h1c.3 0 .5-.2.5-.5s-.2-.5-.5-.5h-1c-.3 0-.5.2-.5.5s.2.5.5.5z"></path></symbol><symbol viewBox="0 0 10 14.2" id="icon-child"><path d="M9.5 7.7L7.8 5.9c-.1-.1-.3-.1-.4-.1H5.8C7 5.4 7.9 4.3 8 2.9 7.9 1.3 6.6 0 5 0S2.1 1.3 2.1 2.9c0 1.4.9 2.5 2.2 2.8H2.7c-.2 0-.3.1-.4.2L.5 7.7C.2 8 0 8.5 0 8.9c0 .5.2.9.5 1.3.4.4 1 .6 1.5.5v1.7c0 .4.2.8.4 1.2.6.7 1.8.8 2.5.2.3.3.7.4 1.2.4 1 0 1.8-.8 1.8-1.8v-1.7h.3c1 0 1.8-.8 1.8-1.8 0-.4-.2-.9-.5-1.2zM3.3 2.9c0-1 .8-1.7 1.7-1.7 1 0 1.7.8 1.7 1.7 0 1-.8 1.7-1.7 1.7-.9.1-1.7-.7-1.7-1.7zm5.4 6.5c-.3.2-.7.2-.9 0-.1-.1-.3-.2-.4-.2-.4 0-.6.3-.6.6v2.6c0 .3-.3.6-.6.6s-.6-.3-.6-.6-.3-.6-.6-.6-.6.3-.6.6-.2.5-.5.5-.6-.2-.6-.5V9.8c0-.2-.1-.3-.2-.4-.2-.2-.6-.2-.8 0-.3.2-.7.2-.9 0-.2-.2-.2-.6 0-.9L2.9 7h4.2l1.5 1.5c.1.1.2.3.2.4 0 .2 0 .4-.1.5z"></path></symbol><symbol viewBox="0 0 7 15" id="icon-facebook"><path fill-rule="evenodd" d="M4.868 15H1.826V7.5H0V5h1.825V3.48c0-2.082.616-3.472 3-3.472h1.862v2.5H5.572c-.93 0-.992.455-.992 1.121v1.377h2.252l-.263 2.5h-1.7V15h-.001z"></path></symbol><symbol viewBox="0 0 14 14" id="icon-home"><path d="M8.3 10.7c.3 0 .5-.2.5-.5V6.4c0-.3-.2-.5-.5-.5H5.4c-.3 0-.5.2-.5.5v3.8c0 .3.2.5.5.5h2.9zM5.9 6.9h1.9v2.8H5.9V6.9z"></path><path d="M10.6 5.8c-.3 0-.5.2-.5.5v6H3.6v-6c0-.3-.2-.5-.5-.5s-.5.2-.5.5v6.5c0 .3.2.5.5.5h7.5c.3 0 .5-.2.5-.5V6.3c0-.3-.2-.5-.5-.5z"></path><path d="M13.6 6.5L7.2.1C7 0 6.7 0 6.5.1L.1 6.5c-.1.2-.1.5 0 .7.2.2.5.2.7 0l6-6 6 6c.1.1.2.1.4.1.1 0 .3-.1.3-.1.3-.2.3-.5.1-.7z"></path></symbol><symbol viewBox="0 0 15 20" id="icon-human"><path d="M7.5 6.5c-1.7 0-3-1.3-3-3s1.3-3 3-3 3 1.3 3 3-1.3 3-3 3zm0-5c-1.1 0-2 .9-2 2s.9 2 2 2 2-.9 2-2-.9-2-2-2z"></path><path d="M9.8 19H5.3c-.3 0-.5-.1-.7-.3-.2-.2-.3-.4-.3-.7V9.1l-4-4c-.4-.4-.3-.9 0-1.3l.6-.6c.2-.1.4-.2.6-.2.3 0 .5.1.7.3L5.9 7H9l3.8-3.7c.2-.2.4-.3.7-.3h.2l1.1.9c.1.2.2.4.2.6 0 .2-.1.5-.3.6l-4 3.9v8.9c.1.7-.4 1.1-.9 1.1zM1 4.5l4.2 4.2V18h4.5V8.7l4.2-4.1-.5-.4L9.5 8h-4l-4-4-.5.5zm13-.1zM1.5 4z"></path><path d="M7 12.9h1V19H7z"></path></symbol><symbol viewBox="0 0 16 16" id="icon-instagram"><g fill-rule="evenodd"><path d="M8.064 3.984c-2.24 0-4.096 1.789-4.096 4.016 0 2.227 1.824 4.016 4.096 4.016 2.272 0 4.096-1.82 4.096-4.016 0-2.196-1.856-4.016-4.096-4.016zm0 6.589C6.624 10.573 5.44 9.412 5.44 8s1.184-2.573 2.624-2.573c1.44 0 2.624 1.161 2.624 2.573s-1.184 2.573-2.624 2.573z"></path><ellipse cx="12.32" cy="3.89" rx=".928" ry=".91"></ellipse><path d="M14.72 1.537C13.888.69 12.704.251 11.36.251H4.768C1.984.251.128 2.071.128 4.8v6.431c0 1.35.448 2.51 1.344 3.357.864.816 2.016 1.224 3.328 1.224h6.528c1.376 0 2.528-.44 3.36-1.224.864-.815 1.312-1.976 1.312-3.325V4.8c0-1.318-.448-2.447-1.28-3.263zm-.192 9.726c0 .972-.288 1.757-.864 2.29-.576.533-1.376.816-2.336.816H4.8c-.96 0-1.76-.283-2.336-.816-.576-.565-.864-1.35-.864-2.322V4.8c0-.941.288-1.725.864-2.29.544-.534 1.376-.816 2.336-.816h6.592c.96 0 1.76.282 2.336.847.544.565.864 1.35.864 2.259v6.463h-.064z"></path></g></symbol><symbol viewBox="0 0 36.9 30.2" id="icon-line3"><path d="M36.3 20.2H9.7V13H16c.3 0 .5-.2.5-.5 0-4-3.3-7.2-7.2-7.2-4 0-7.2 3.3-7.2 7.2-.1.3.1.5.4.5h6.2v7.2H.5c-.3 0-.5.2-.5.5s.2.5.5.5h35.8c.3 0 .5-.2.5-.5s-.2-.5-.5-.5zM15.4 12h-2.7c0-2.4-.4-4.1-1.1-5.3 2.1.9 3.7 2.9 3.8 5.3zM6.8 6.7c-.7 1.2-1 2.9-1.1 5.3H3c.2-2.4 1.7-4.4 3.8-5.3zm2.4-.4c1.5 0 2.4 2.1 2.5 5.7h-5c.1-3.6 1-5.7 2.5-5.7zm24.1.7c0-1.9-1.5-3.4-3.4-3.4S26.5 5.1 26.5 7s1.5 3.4 3.4 3.4 3.4-1.5 3.4-3.4zm-3.4 2.4c-1.3 0-2.4-1.1-2.4-2.4 0-1.3 1.1-2.4 2.4-2.4 1.3 0 2.4 1.1 2.4 2.4 0 1.3-1.1 2.4-2.4 2.4zm-.5 1.7v2.4c0 .3.2.5.5.5s.5-.2.5-.5v-2.4c0-.3-.2-.5-.5-.5s-.5.2-.5.5zm.5-7.7c.3 0 .5-.2.5-.5V.5c0-.3-.2-.5-.5-.5s-.5.2-.5.5v2.4c0 .2.2.5.5.5zm-6.5 4.1h2.4c.3 0 .5-.2.5-.5s-.2-.5-.5-.5h-2.4c-.3 0-.5.2-.5.5s.2.5.5.5zM33.5 7c0 .3.2.5.5.5h2.4c.3 0 .5-.2.5-.5s-.2-.5-.5-.5H34c-.3 0-.5.2-.5.5zm-6.9-2.6c.1.1.2.1.4.1s.3 0 .4-.1c.2-.2.2-.5 0-.7L25.7 2c-.2-.2-.5-.2-.7 0s-.2.5 0 .7l1.6 1.7zm7.5 7.5c.1.1.2.1.4.1s.3 0 .4-.1c.2-.2.2-.5 0-.7l-1.7-1.7c-.2-.2-.5-.2-.7 0s-.2.5 0 .7l1.6 1.7z"></path><path d="M32.8 4.6c.1 0 .3 0 .4-.1l1.7-1.7c.1-.2.1-.6-.1-.8s-.5-.2-.7 0l-1.7 1.7c-.2.2-.2.5 0 .7.1.1.3.2.4.2zm-6.2 4.9L25 11.2c-.2.2-.2.5 0 .7.1.1.2.1.4.1s.3 0 .4-.1l1.7-1.7c.2-.2.2-.5 0-.7s-.7-.2-.9 0zm9.7 13H.5c-.3 0-.5.3-.5.5s.2.5.5.5h35.8c.3 0 .5-.2.5-.5s-.2-.5-.5-.5zm0 2.4H.5c-.3 0-.5.2-.5.5s.2.5.5.5h35.8c.3 0 .5-.2.5-.5s-.2-.5-.5-.5zm-1.1 2.6c-.7 0-1.4.5-1.6 1.2-.1.3-.3.5-.6.5s-.6-.2-.6-.5c-.2-.7-.9-1.2-1.6-1.2-.7 0-1.4.5-1.6 1.2-.1.3-.3.5-.6.5s-.6-.2-.6-.5c-.2-.7-.9-1.2-1.6-1.2-.7 0-1.4.5-1.6 1.2-.1.3-.3.5-.6.5s-.6-.2-.6-.5c-.2-.7-.9-1.2-1.6-1.2-.7 0-1.4.5-1.6 1.2-.1.3-.3.5-.6.5s-.6-.2-.6-.5c-.2-.7-.9-1.2-1.6-1.2-.7 0-1.4.5-1.6 1.2-.1.3-.3.5-.6.5s-.6-.2-.6-.5c-.2-.7-.9-1.2-1.6-1.2-.7 0-1.4.5-1.6 1.2-.1.3-.3.5-.6.5s-.6-.2-.6-.5c-.2-.7-.9-1.2-1.6-1.2-.7 0-1.4.5-1.6 1.2-.1.3-.3.5-.6.5S6 29 6 28.7c-.2-.7-.9-1.2-1.6-1.2-.7 0-1.4.5-1.6 1.2-.1.3-.3.5-.6.5s-.6-.2-.6-.5c-.1-.3-.4-.4-.6-.3-.3.1-.4.4-.3.6.2.7.9 1.2 1.6 1.2.7 0 1.4-.5 1.6-1.2.1-.3.3-.5.6-.5s.6.2.6.5c.2.7.9 1.2 1.6 1.2.7 0 1.4-.5 1.6-1.2.1-.3.3-.5.6-.5s.6.2.6.5c.2.7.9 1.2 1.6 1.2.7 0 1.4-.5 1.6-1.2.1-.3.3-.5.6-.5s.6.2.6.5c.2.7.9 1.2 1.6 1.2.7 0 1.4-.5 1.6-1.2.1-.3.3-.5.6-.5s.6.2.6.5c.2.7.9 1.2 1.6 1.2.7 0 1.4-.5 1.6-1.2.1-.3.3-.5.6-.5s.6.2.6.5c.2.7.9 1.2 1.6 1.2.7 0 1.4-.5 1.6-1.2.1-.3.3-.5.6-.5s.6.2.6.5c.2.7.9 1.2 1.6 1.2.7 0 1.4-.5 1.6-1.2.1-.3.3-.5.6-.5s.6.2.6.5c.2.7.9 1.2 1.6 1.2.7 0 1.4-.5 1.6-1.2.1-.3.3-.5.6-.5s.6.2.6.5c.1.2.3.4.5.4h.1c.3-.1.4-.4.3-.6-.2-.8-.9-1.3-1.6-1.3z"></path></symbol><symbol viewBox="0 0 17 17" id="icon-path"><path class="st0" d="M16.7 4.2l-3.2-2.5c-.1-.1-.1-.1-.2-.1h-2.9V.5c0-.2-.2-.4-.4-.4H6.9c-.2 0-.4.2-.4.4v1.1h-.8c-.2 0-.3.2-.3.4v5c0 .2.2.4.4.4h.8v.8h-3c-.1 0-.2 0-.2.1L.2 10.8l-.1.1c-.1 0-.1.2.1.4l3.2 2.5c.1.1.1.1.2.1h2.9v2.7c0 .2.2.4.4.4H10c.2 0 .4-.2.4-.4v-2.7h.8c.2 0 .4-.2.4-.4v-5c0-.2-.2-.4-.4-.4h-.8v-.8h2.9c.1 0 .2 0 .2-.1l3.2-2.5.1-.1c.1-.1 0-.3-.1-.4zM7.3.8h2.3v.8H7.3V.8zm2.3 15.3H7.3v-2.3h2.3v2.3zm1.1-7.2v4.2H3.8L1 11l2.7-2.1h7zm-3.4-.8v-.8h2.3v.8H7.3zm5.8-1.5h-7V2.4H13l2.7 2.1-2.6 2.1z"></path></symbol><symbol viewBox="0 0 23 26" id="icon-pebble"><path d="M18.1 15.6c2-.4 3.9-1.4 3.9-3.6 0-4-6-4-8-4h-.2c.7-.4 1.2-1.1 1.2-2 0-.9-.5-1.6-1.2-2 1.4-.1 3.2-.5 3.2-2 0-2-3.3-2-4.5-2C11.3 0 8 0 8 2c0 .4.1.7.4 1C6.7 3 2 3.1 2 6c0 2.7 4 3 6 3-1.1.6-2 1.5-2 3 0 1.6.9 2.5 2.2 3.1-3.6.3-8.2 1.4-8.2 5.4C0 26 8.7 26 11.5 26c2.8 0 11.5 0 11.5-5.5 0-2.8-2.3-4.2-4.9-4.9zM12.5 1c2.3 0 3.5.4 3.5 1s-1.2 1-3.5 1S9 2.6 9 2s1.2-1 3.5-1zM3 6c0-1.3 1.9-2 5.5-2s5.5.7 5.5 2-1.9 2-5.5 2S3 7.3 3 6zm4 6c0-2 2.3-3 7-3s7 1 7 3-2.3 3-7 3-7-1-7-3zm4.5 13C4.4 25 1 23.5 1 20.5S4.4 16 11.5 16 22 17.5 22 20.5 18.6 25 11.5 25z"></path></symbol><symbol viewBox="0 0 40 40" id="icon-pinterest"><path d="M40 20c0 3.6-.9 7-2.7 10-1.8 3.1-4.2 5.5-7.3 7.3-3 1.8-6.4 2.7-10 2.7-1.9 0-3.8-.3-5.7-.8 1-1.6 1.7-3 2-4.3.2-.6.6-2.4 1.4-5.5.3.7 1 1.3 1.9 1.8.9.5 1.9.7 3 .7 2.1 0 4-.6 5.6-1.8 1.6-1.2 2.9-2.8 3.8-4.9.9-2.1 1.4-4.4 1.4-7 0-2-.5-3.8-1.5-5.6-1-1.7-2.5-3.2-4.5-4.2s-4.2-1.6-6.6-1.6c-1.8 0-3.5.3-5.1.8s-2.9 1.2-4 2-2 1.8-2.8 2.9-1.5 2.1-1.9 3.2c-.4 1.2-.6 2.3-.6 3.5 0 1.8.3 3.4 1 4.8s1.7 2.3 3 2.9c.5.2.9 0 1-.5 0-.1.1-.4.2-.8s.2-.7.2-.8c.1-.4 0-.8-.3-1.1-.9-1.1-1.3-2.4-1.3-3.9 0-2.6.9-4.9 2.7-6.8s4.2-2.8 7.1-2.8c2.6 0 4.7.7 6.1 2.1 1.5 1.4 2.2 3.3 2.2 5.5 0 3-.6 5.5-1.8 7.5s-2.7 3.1-4.6 3.1c-1.1 0-1.9-.4-2.6-1.1-.6-.8-.8-1.7-.6-2.7.1-.6.4-1.4.7-2.4s.6-1.9.8-2.7.3-1.4.3-2c0-.9-.2-1.6-.7-2.2-.5-.6-1.1-.9-2-.9-1.1 0-2 .5-2.7 1.5S14 18.1 14 19.6c0 1.3.2 2.3.7 3.2l-2.6 10.9c-.3 1.2-.4 2.8-.3 4.6-3.6-1.6-6.5-4-8.7-7.3S0 24 0 20c0-3.6.9-7 2.7-10S6.9 4.5 10 2.7 16.4 0 20 0s7 .9 10 2.7 5.5 4.2 7.3 7.3c1.8 3 2.7 6.4 2.7 10z"></path></symbol><symbol viewBox="0 0 17 16" id="icon-rest"><path d="M12 15.5h-1v-4H9v-1h2v-2h3v1h1v1h-1v-1h-2v1h4v1h-4v4zm-6 0H5v-4H1v-1h4v-2h1v2h2v1H6v2h1v1H6v1zm5-1h-1v-1H9v-2h1v2h1v1zm-3-1H7v-2h1v2zm-5-3H2v-1h1v1zm6-1H8v-1H7v-1h1v-1h1v1h1v1H9v1zm-4 0H3v-1h2v1zm9-2h-2v-1h2v1zm-2 0h-1v-2H9v-3h1v2h1v-2h-1v-1h1v-1h1v4h4v1h-1v1h-1v-1h-2v2zm-6 0H5v-2H3v1H2v-1H1v-1h4v-4h1v1h1v1H6v2h1v-2h1v3H6v2zm-1 0H3v-1h2v1z"></path></symbol><symbol viewBox="0 0 18 18" id="icon-search"><path d="M17.7 16.3L13.5 12c2.2-2.9 2-7.2-.7-9.8C11.4.8 9.5 0 7.5 0S3.6.8 2.2 2.2 0 5.5 0 7.5s.8 3.9 2.2 5.3C3.7 14.3 5.6 15 7.5 15c1.6 0 3.2-.5 4.5-1.5l4.2 4.2c.2.2.5.3.7.3s.5-.1.7-.3c.5-.4.5-1 .1-1.4zM3.6 11.4C2.6 10.4 2 9 2 7.5s.6-2.9 1.6-3.9S6 2 7.5 2s2.9.6 3.9 1.6c2 2 2.1 5.3.3 7.5-.1 0-.3.1-.4.2s-.2.2-.2.4c-2.2 1.8-5.4 1.7-7.5-.3z"></path></symbol><symbol viewBox="0 0 12 20" id="icon-ship"><path d="M1.9 9.9c.3 0 .5-.2.5-.5V7.3c0-.2.2-.4.4-.4h6.1c.2 0 .4.2.4.4v2.1c0 .3.2.5.5.5s.5-.2.5-.5V7.3c0-.7-.5-1.3-1.2-1.4V4.8c0-.5-.4-.9-.9-.9h-1v-3c.1-.5-.4-.9-.9-.9h-.8c-.5 0-1 .4-1 .9v2.9h-1c-.5.1-.9.5-.9 1v1.1c-.7.1-1.2.7-1.2 1.4v2.1c0 .3.2.5.5.5zM5.5 1l.8-.1v2.9h-.8V1zm2.7 3.8v1.1H3.6v-1l4.6-.1z"></path><path d="M10.8 16.1l1-3.7c.1-.5-.1-1-.6-1.2L6.1 9.1h-.4L.6 11.2c-.5.2-.7.7-.6 1.2l1 3.7c-.6.2-1 .8-1 1.5 0 .3.2.5.5.5s.5-.2.5-.5.3-.6.6-.6.6.3.6.6c0 .9.7 1.6 1.6 1.6.9 0 1.6-.7 1.6-1.6 0-.3.3-.6.6-.6s.6.3.6.6c0 .9.7 1.6 1.6 1.6.9 0 1.6-.7 1.6-1.6 0-.3.3-.6.6-.6s.6.3.6.6.2.5.5.5.5-.2.5-.5c-.2-.7-.6-1.3-1.2-1.5zm-6.4 1.4c0 .3-.3.6-.6.6s-.6-.3-.6-.6c0-.7-.5-1.3-1.1-1.5L1 12.1l4.4-1.8V16c-.6.3-1 .8-1 1.5zm3.7.6c-.3 0-.6-.3-.6-.6 0-.7-.5-1.3-1.1-1.5v-5.7l4.4 1.8L9.7 16c-.6.2-1.1.8-1.1 1.5.1.4-.2.6-.5.6z"></path><path d="M8.6 11.9c-.2-.2-.5-.1-.7.1h-.2s-.1-.1-.1-.2c.2-.2.1-.5-.1-.7-.2-.1-.5 0-.6.2-.2.2-.2.5-.2.8.1.3.2.6.5.8.2.1.4.2.7.2h.2c.3 0 .6-.2.7-.5.1-.2.1-.5-.2-.7zm-3.7-.6c-.2-.2-.5-.3-.7-.1-.2.2-.3.5-.2.7v.1s-.1.1-.2 0c-.2-.2-.5-.3-.7-.1-.2.2-.3.5-.1.7.2.2.4.4.7.5h.2c.2 0 .5-.1.7-.2.2-.2.4-.5.4-.8.1-.3 0-.5-.1-.8z"></path></symbol><symbol viewBox="0 0 21 21" id="icon-telegram"><style><![CDATA[.st0{fill:#fff;filter:url(#Adobe_OpacityMaskFilter)}.st1{mask:url(#mask0_1_)}.st2{fill:#85838b}.st3{fill:#fff}.st4{fill:#d5d5d5}.st5{fill:#eaeaea}]]></style><mask maskUnits="userSpaceOnUse" x="0" y="0" width="21" height="21" id="telegram-mask0_1_"><path class="st0" d="M10.5 0C4.7 0 0 4.7 0 10.5S4.7 21 10.5 21 21 16.3 21 10.5 16.3 0 10.5 0z"></path></mask><g class="st1"><path class="st2" d="M10.5 0C4.7 0 0 4.7 0 10.5S4.7 21 10.5 21 21 16.3 21 10.5 16.3 0 10.5 0z"></path></g><path class="st3" d="M15.6 6l-1.9 9.5s-.3.7-1 .3l-4.3-3.3-1.6-.8-2.7-.9s-.4-.1-.4-.5c0-.3.5-.5.5-.5l10.5-4.1c.1.1.9-.3.9.3z"></path><path class="st4" d="M8.1 15.4s-.1 0-.3-.5c-.2-.5-1-3.1-1-3.1l6.4-4s.4-.2.4 0c0 0 .1 0-.1.2s-5 4.5-5 4.5"></path><path class="st5" d="M10.1 13.8l-1.7 1.6s-.1.1-.3 0l.3-2.9"></path></symbol><symbol viewBox="0 0 20.8 22.4" id="icon-viber"><path d="M18.4 2.2c-.5-.5-2.7-2.2-7.6-2.2 0 0-5.8-.4-8.6 2.3C.6 3.9.1 6.3 0 9.2c0 2.9-.1 8.3 5 9.8v2.3s0 .9.6 1.1c.7.2 1.1-.5 1.8-1.2.4-.4.9-1 1.3-1.5 3.5.3 6.2-.4 6.5-.5.7-.2 4.7-.8 5.4-6.2.6-5.6-.4-9.2-2.2-10.8zm.6 10.4c-.6 4.6-3.8 4.8-4.4 5-.3.1-2.6.7-5.6.5l-3.2 3.6v-4.1c-4.3-1.2-4.2-5.9-4.2-8.3s.5-4.4 1.8-5.8c2.4-2.2 7.3-1.9 7.3-1.9 4.1 0 6.1 1.3 6.6 1.7 1.5 1.4 2.3 4.6 1.7 9.3z"></path><path d="M14.3 12.4c-.3-.2-.8-.5-1.1-.7-.5-.3-1-.1-1.2.2l-.4.5c-.2.3-.6.2-.6.2-.6-.2-1.3-.5-2-1.2S7.9 10 7.7 9.3c0-.3 0-.4.1-.6.3-.3.8-.6.9-.9.3-.5-.6-1.7-.7-1.9 0 0-.7-.9-.9-1-.3-.2-.6-.3-1-.1-1.2.8-1.6 1.2-1.5 1.9l.1.3c.6 1.8 1.7 3.8 3.3 5.5 1.6 1.7 3.4 2.7 5.2 3.4.5.2.9 0 1.4-.4.4-.3.7-.7.9-1.1.2-.4.1-.8-.2-1.1 0 0-.7-.6-1-.9zM10.9 7.5c0 .1.1.1.1.1.4 0 .8.2 1 .4.2.2.4.6.4 1.1 0 .1.1.1.1.1.1 0 .1-.1.1-.1 0-.5-.2-1-.5-1.2-.3-.3-.7-.5-1.2-.5.1 0 0 .1 0 .1z"></path><path d="M13.7 9.6c0 .1.1.1.1.1.1 0 .1-.1.1-.1 0-1-.3-1.8-.9-2.5-.6-.7-1.4-1-2.5-1.1-.1 0-.1 0-.1.1s0 .1.1.1c.5 0 .9.1 1.3.3.4.2.7.4 1 .7.7.7 1 1.5.9 2.4z"></path><path d="M10.2 5c.7 0 1.3.1 1.9.4.6.2 1.1.6 1.5 1 .5.5.8 1 1 1.6.2.6.4 1.3.4 2.1 0 .1.1.1.1.1.1 0 .1-.1.1-.1 0-.8-.1-1.6-.4-2.2-.2-.7-.6-1.2-1.1-1.7-1-1-2.2-1.5-3.6-1.5-.1 0-.1.1-.1.1l.2.2z"></path></symbol><symbol viewBox="0 0 21 21.2" id="icon-watsap"><path d="M10.7 0C4.9 0 .3 4.6.3 10.3c0 2.8 1.5 5.4 1.5 5.4L0 21.2l5.7-1.8s2.1 1.3 5 1.3c5.7 0 10.3-4.6 10.3-10.3C21 4.6 16.4 0 10.7 0zm0 19c-2.7 0-4.8-1.4-4.8-1.4l-3.3 1.1 1.1-3.2S2 13.2 2 10.3c0-4.8 3.9-8.7 8.7-8.7 4.8 0 8.7 3.9 8.7 8.7-.1 4.8-3.9 8.7-8.7 8.7z"></path><path d="M15.7 12.5s-1.7-.8-2-1c-.3-.2-.5.1-.5.1s-.5.7-.7.9c-.2.2-.3.4-.7.3-.4-.1-1.3-.6-2-1.2s-1.2-1.5-1.4-1.7c-.2-.3 0-.4 0-.4s.4-.5.7-.8c.2-.3.1-.6 0-.7-.1-.1-.7-1.7-.8-2-.1-.3-.3-.3-.3-.3h-.9c-.1 0-.4.1-.4.1-.8.5-1 1.8-1 2.1 0 .3 0 .8.4 1.8S7.6 12 9 13.2c1.3 1.2 3.4 1.8 4 2 .6.2 1.9-.1 2.5-.8.6-.7.5-1.4.5-1.6-.1-.2-.3-.3-.3-.3z"></path></symbol></svg>