<svg xmlns="http://www.w3.org/2000/svg" viewBox="0 0 21 14"><path fill-rule="evenodd" d="M7.773 9.092a1.646 1.646 0 0 1-.836 1.659 2.585 2.585 0 0 1-1.3.242H2.925v-3.53h2.77a2.38 2.38 0 0 1 1.241.212c.55.247.886.815.837 1.417zm9.609-3.438c.368.43.581.972.606 1.538h-4.1a3.249 3.249 0 0 1 .634-1.478 1.774 1.774 0 0 1 1.443-.543 2.238 2.238 0 0 1 1.417.479v.004zM.011.013v13.3h5.714c.61.001 1.217-.05 1.818-.151a4.24 4.24 0 0 0 1.413-.724c.374-.275.689-.624.924-1.025.375-.64.574-1.37.577-2.112a3.852 3.852 0 0 0-.52-1.96A3.07 3.07 0 0 0 8.5 6.136a2.17 2.17 0 0 0 .923-.754c.45-.551.677-1.25.635-1.961a3.49 3.49 0 0 0-.577-1.99A3.782 3.782 0 0 0 6.163.013H.011zm12.7 4.4a5.392 5.392 0 0 0-1.27 3.8 4.858 4.858 0 0 0 1.356 3.861 5.031 5.031 0 0 0 3.232 1.117 4.279 4.279 0 0 0 3.434-1.358c.461-.468.764-1.07.865-1.719H17.9a1.323 1.323 0 0 1-.49.633 2.254 2.254 0 0 1-2.626.061 2.208 2.208 0 0 1-.952-1.991H20.5c.003-.625-.036-1.25-.115-1.87a5.612 5.612 0 0 0-.721-1.991 4.153 4.153 0 0 0-1.559-1.418 5.421 5.421 0 0 0-2.135-.422 4.225 4.225 0 0 0-3.262 1.301l.003-.004zm.663-3.861v1.357h5.079V.552h-5.079zM6.997 4.896a2.6 2.6 0 0 1-1.356.331H2.929V2.301h2.4a5 5 0 0 1 1.5.212c.474.219.753.718.693 1.236.047.451-.155.892-.528 1.151l.003-.004z"/></svg>