<svg viewBox="0 0 17 15" fill="none" xmlns="http://www.w3.org/2000/svg">
  <path fill-rule="evenodd" clip-rule="evenodd" d="M9.856 2.623a.377.377 0 0 0-.234.082L7.304 4.491a.378.378 0 0 0 .451.605l.01-.007 2.318-1.786a.379.379 0 0 0-.227-.68zM3.473 5.13c-1.129 0-1.84.828-1.964 1.696a.376.376 0 0 0 .313.432.376.376 0 0 0 .432-.313l.002-.013c.081-.571.43-1.046 1.217-1.046h1.535a.377.377 0 1 0 .013-.755H3.473zm11.343 1.71a.378.378 0 0 0-.01.755h1.545a.377.377 0 1 0 .009-.755h-1.544zm.259-4.583a.38.38 0 0 0-.266.1l-1.482 1.32a.377.377 0 1 0 .494.57c.003-.002.005-.005.008-.006l1.482-1.32a.377.377 0 0 0-.236-.663zm-1.485 7.84a.378.378 0 0 0-.264.663l1.483 1.319a.377.377 0 1 0 .509-.556l-.007-.007-1.483-1.32a.372.372 0 0 0-.239-.1z"/>
  <mask id="a" maskUnits="userSpaceOnUse" x="0" y="0" width="14" height="15">
    <path fill-rule="evenodd" clip-rule="evenodd" d="M0 0h13.911v14.493H0V0z" fill="#fff"/>
  </mask>
  <g mask="url(#a)">
    <path fill-rule="evenodd" clip-rule="evenodd" d="M11.833 8.568h-.325l.012-2.645h.313c.728 0 1.323.596 1.323 1.324 0 .727-.595 1.321-1.323 1.321zm-5.236 1.636v-5.86l4.153-3.193.003 12.198-4.156-3.145zm-.755-.253H3.388c-.908 0-1.54-.33-1.974-.825C.981 8.63.755 7.956.755 7.274c0-.682.226-1.357.659-1.852.434-.495 1.066-.826 1.974-.826h2.454v5.355zm5.991-4.782h-.31L11.508.38a.39.39 0 0 0-.113-.27.386.386 0 0 0-.274-.109.38.38 0 0 0-.222.08L6.014 3.84H3.388c-1.099 0-1.972.433-2.542 1.083C.276 5.575 0 6.427 0 7.274c0 .846.278 1.696.846 2.35.859.985 2.094 1.082 2.542 1.082h2.625l4.883 3.71a.375.375 0 0 0 .396.04.383.383 0 0 0 .155-.139.38.38 0 0 0 .057-.199V9.323h.329c1.14 0 2.078-.936 2.078-2.076a2.087 2.087 0 0 0-2.078-2.078z"/>
  </g>
</svg>
