<svg xmlns="http://www.w3.org/2000/svg" viewBox="0 0 12 15"><path d="M10 2V.5c0-.3-.2-.5-.5-.5S9 .2 9 .5V2H3V.5c0-.3-.2-.5-.5-.5S2 .2 2 .5V2C.9 2 0 2.9 0 4v9c0 1.1.9 2 2 2h8c1.1 0 2-.9 2-2V4c0-1.1-.9-2-2-2zm1 11c0 .6-.4 1-1 1H2c-.6 0-1-.4-1-1V7h10v6zM1 6V4c0-.6.4-1 1-1v1.5c0 .3.2.5.5.5s.5-.2.5-.5V3h6v1.5c0 .3.2.5.5.5s.5-.2.5-.5V3c.6 0 1 .4 1 1v2H1z"/><path d="M8.5 9h1c.3 0 .5-.2.5-.5S9.8 8 9.5 8h-1c-.3 0-.5.2-.5.5s.2.5.5.5zM8.5 11h1c.3 0 .5-.2.5-.5s-.2-.5-.5-.5h-1c-.3 0-.5.2-.5.5s.2.5.5.5zM8.5 13h1c.3 0 .5-.2.5-.5s-.2-.5-.5-.5h-1c-.3 0-.5.2-.5.5s.2.5.5.5zM5.5 9h1c.3 0 .5-.2.5-.5S6.8 8 6.5 8h-1c-.3 0-.5.2-.5.5s.2.5.5.5zM5.5 11h1c.3 0 .5-.2.5-.5s-.2-.5-.5-.5h-1c-.3 0-.5.2-.5.5s.2.5.5.5zM5.5 13h1c.3 0 .5-.2.5-.5s-.2-.5-.5-.5h-1c-.3 0-.5.2-.5.5s.2.5.5.5zM2.5 9h1c.3 0 .5-.2.5-.5S3.8 8 3.5 8h-1c-.3 0-.5.2-.5.5s.2.5.5.5zM2.5 11h1c.3 0 .5-.2.5-.5s-.2-.5-.5-.5h-1c-.3 0-.5.2-.5.5s.2.5.5.5zM2.5 13h1c.3 0 .5-.2.5-.5s-.2-.5-.5-.5h-1c-.3 0-.5.2-.5.5s.2.5.5.5z"/></svg>