<svg xmlns="http://www.w3.org/2000/svg" viewBox="0 0 10 14.2">
  <path d="M9.5 7.7L7.8 5.9c-.1-.1-.3-.1-.4-.1H5.8C7 5.4 7.9 4.3 8 2.9 7.9 1.3 6.6 0 5 0S2.1 1.3 2.1 2.9c0 1.4.9 2.5 2.2 2.8H2.7c-.2 0-.3.1-.4.2L.5 7.7C.2 8 0 8.5 0 8.9c0 .5.2.9.5 1.3.4.4 1 .6 1.5.5v1.7c0 .4.2.8.4 1.2.6.7 1.8.8 2.5.2.3.3.7.4 1.2.4 1 0 1.8-.8 1.8-1.8v-1.7h.3c1 0 1.8-.8 1.8-1.8 0-.4-.2-.9-.5-1.2zM3.3 2.9c0-1 .8-1.7 1.7-1.7 1 0 1.7.8 1.7 1.7 0 1-.8 1.7-1.7 1.7-.9.1-1.7-.7-1.7-1.7zm5.4 6.5c-.3.2-.7.2-.9 0-.1-.1-.3-.2-.4-.2-.4 0-.6.3-.6.6v2.6c0 .3-.3.6-.6.6s-.6-.3-.6-.6-.3-.6-.6-.6-.6.3-.6.6-.2.5-.5.5-.6-.2-.6-.5V9.8c0-.2-.1-.3-.2-.4-.2-.2-.6-.2-.8 0-.3.2-.7.2-.9 0-.2-.2-.2-.6 0-.9L2.9 7h4.2l1.5 1.5c.1.1.2.3.2.4 0 .2 0 .4-.1.5z"/>
</svg>
