<svg xmlns="http://www.w3.org/2000/svg" viewBox="0 0 15 20">
  <path d="M7.5 5.5c-1.7 0-3-1.3-3-3s1.3-3 3-3 3 1.3 3 3-1.3 3-3 3zm0-5c-1.1 0-2 .9-2 2s.9 2 2 2 2-.9 2-2-.9-2-2-2z" transform="translate(0 1)"/>
  <path d="M9.8 18H5.3c-.3 0-.5-.1-.7-.3-.2-.2-.3-.4-.3-.7V8.1l-4-4c-.4-.4-.3-.9 0-1.3l.6-.6c.2-.1.4-.2.6-.2.3 0 .5.1.7.3L5.9 6H9l3.8-3.7c.2-.2.4-.3.7-.3h.2l1.1.9c.1.2.2.4.2.6 0 .2-.1.5-.3.6l-4 3.9v8.9c.1.7-.4 1.1-.9 1.1zM1 3.5l4.2 4.2V17h4.5V7.7l4.2-4.1-.5-.4L9.5 7h-4l-4-4-.5.5zm13-.1zM1.5 3z" transform="translate(0 1)"/>
  <path d="M7 11.9h1V18H7z" transform="translate(0 1)"/>
</svg>
