<svg xmlns="http://www.w3.org/2000/svg" viewBox="0 0 36.9 30.2"><path d="M36.3 20.2H9.7V13H16c.3 0 .5-.2.5-.5 0-4-3.3-7.2-7.2-7.2-4 0-7.2 3.3-7.2 7.2-.1.3.1.5.4.5h6.2v7.2H.5c-.3 0-.5.2-.5.5s.2.5.5.5h35.8c.3 0 .5-.2.5-.5s-.2-.5-.5-.5zM15.4 12h-2.7c0-2.4-.4-4.1-1.1-5.3 2.1.9 3.7 2.9 3.8 5.3zM6.8 6.7c-.7 1.2-1 2.9-1.1 5.3H3c.2-2.4 1.7-4.4 3.8-5.3zm2.4-.4c1.5 0 2.4 2.1 2.5 5.7h-5c.1-3.6 1-5.7 2.5-5.7zM33.3 7c0-1.9-1.5-3.4-3.4-3.4S26.5 5.1 26.5 7s1.5 3.4 3.4 3.4 3.4-1.5 3.4-3.4zm-3.4 2.4c-1.3 0-2.4-1.1-2.4-2.4 0-1.3 1.1-2.4 2.4-2.4 1.3 0 2.4 1.1 2.4 2.4 0 1.3-1.1 2.4-2.4 2.4zM29.4 11.1v2.4c0 .3.2.5.5.5s.5-.2.5-.5v-2.4c0-.3-.2-.5-.5-.5s-.5.2-.5.5zM29.9 3.4c.3 0 .5-.2.5-.5V.5c0-.3-.2-.5-.5-.5s-.5.2-.5.5v2.4c0 .2.2.5.5.5zM23.4 7.5h2.4c.3 0 .5-.2.5-.5s-.2-.5-.5-.5h-2.4c-.3 0-.5.2-.5.5s.2.5.5.5zM33.5 7c0 .3.2.5.5.5h2.4c.3 0 .5-.2.5-.5s-.2-.5-.5-.5H34c-.3 0-.5.2-.5.5zM26.6 4.4c.1.1.2.1.4.1s.3 0 .4-.1c.2-.2.2-.5 0-.7L25.7 2c-.2-.2-.5-.2-.7 0s-.2.5 0 .7l1.6 1.7zM34.1 11.9c.1.1.2.1.4.1s.3 0 .4-.1c.2-.2.2-.5 0-.7l-1.7-1.7c-.2-.2-.5-.2-.7 0s-.2.5 0 .7l1.6 1.7z"/><path d="M32.8 4.6c.1 0 .3 0 .4-.1l1.7-1.7c.1-.2.1-.6-.1-.8s-.5-.2-.7 0l-1.7 1.7c-.2.2-.2.5 0 .7.1.1.3.2.4.2zM26.6 9.5L25 11.2c-.2.2-.2.5 0 .7.1.1.2.1.4.1s.3 0 .4-.1l1.7-1.7c.2-.2.2-.5 0-.7s-.7-.2-.9 0zM36.3 22.5H.5c-.3 0-.5.3-.5.5s.2.5.5.5h35.8c.3 0 .5-.2.5-.5s-.2-.5-.5-.5zM36.3 24.9H.5c-.3 0-.5.2-.5.5s.2.5.5.5h35.8c.3 0 .5-.2.5-.5s-.2-.5-.5-.5zM35.2 27.5c-.7 0-1.4.5-1.6 1.2-.1.3-.3.5-.6.5s-.6-.2-.6-.5c-.2-.7-.9-1.2-1.6-1.2-.7 0-1.4.5-1.6 1.2-.1.3-.3.5-.6.5s-.6-.2-.6-.5c-.2-.7-.9-1.2-1.6-1.2-.7 0-1.4.5-1.6 1.2-.1.3-.3.5-.6.5s-.6-.2-.6-.5c-.2-.7-.9-1.2-1.6-1.2-.7 0-1.4.5-1.6 1.2-.1.3-.3.5-.6.5s-.6-.2-.6-.5c-.2-.7-.9-1.2-1.6-1.2-.7 0-1.4.5-1.6 1.2-.1.3-.3.5-.6.5s-.6-.2-.6-.5c-.2-.7-.9-1.2-1.6-1.2-.7 0-1.4.5-1.6 1.2-.1.3-.3.5-.6.5s-.6-.2-.6-.5c-.2-.7-.9-1.2-1.6-1.2-.7 0-1.4.5-1.6 1.2-.1.3-.3.5-.6.5S6 29 6 28.7c-.2-.7-.9-1.2-1.6-1.2-.7 0-1.4.5-1.6 1.2-.1.3-.3.5-.6.5s-.6-.2-.6-.5c-.1-.3-.4-.4-.6-.3-.3.1-.4.4-.3.6.2.7.9 1.2 1.6 1.2.7 0 1.4-.5 1.6-1.2.1-.3.3-.5.6-.5s.6.2.6.5c.2.7.9 1.2 1.6 1.2.7 0 1.4-.5 1.6-1.2.1-.3.3-.5.6-.5s.6.2.6.5c.2.7.9 1.2 1.6 1.2.7 0 1.4-.5 1.6-1.2.1-.3.3-.5.6-.5s.6.2.6.5c.2.7.9 1.2 1.6 1.2.7 0 1.4-.5 1.6-1.2.1-.3.3-.5.6-.5s.6.2.6.5c.2.7.9 1.2 1.6 1.2.7 0 1.4-.5 1.6-1.2.1-.3.3-.5.6-.5s.6.2.6.5c.2.7.9 1.2 1.6 1.2.7 0 1.4-.5 1.6-1.2.1-.3.3-.5.6-.5s.6.2.6.5c.2.7.9 1.2 1.6 1.2.7 0 1.4-.5 1.6-1.2.1-.3.3-.5.6-.5s.6.2.6.5c.2.7.9 1.2 1.6 1.2.7 0 1.4-.5 1.6-1.2.1-.3.3-.5.6-.5s.6.2.6.5c.1.2.3.4.5.4h.1c.3-.1.4-.4.3-.6-.2-.8-.9-1.3-1.6-1.3z"/></svg>