<svg xmlns="http://www.w3.org/2000/svg" viewBox="0 0 17 17">
  <path class="st0" d="M16.7 4.2l-3.2-2.5c-.1-.1-.1-.1-.2-.1h-2.9V.5c0-.2-.2-.4-.4-.4H6.9c-.2 0-.4.2-.4.4v1.1h-.8c-.2 0-.3.2-.3.4v5c0 .2.2.4.4.4h.8v.8h-3c-.1 0-.2 0-.2.1L.2 10.8l-.1.1c-.1 0-.1.2.1.4l3.2 2.5c.1.1.1.1.2.1h2.9v2.7c0 .2.2.4.4.4H10c.2 0 .4-.2.4-.4v-2.7h.8c.2 0 .4-.2.4-.4v-5c0-.2-.2-.4-.4-.4h-.8v-.8h2.9c.1 0 .2 0 .2-.1l3.2-2.5.1-.1c.1-.1 0-.3-.1-.4zM7.3.8h2.3v.8H7.3V.8zm2.3 15.3H7.3v-2.3h2.3v2.3zm1.1-7.2v4.2H3.8L1 11l2.7-2.1h7zm-3.4-.8v-.8h2.3v.8H7.3zm5.8-1.5h-7V2.4H13l2.7 2.1-2.6 2.1z"/>
</svg>
