<svg xmlns="http://www.w3.org/2000/svg" viewBox="0 0 23 26"><path d="M18.1 15.6c2-.4 3.9-1.4 3.9-3.6 0-4-6-4-8-4h-.2c.7-.4 1.2-1.1 1.2-2 0-.9-.5-1.6-1.2-2 1.4-.1 3.2-.5 3.2-2 0-2-3.3-2-4.5-2C11.3 0 8 0 8 2c0 .4.1.7.4 1C6.7 3 2 3.1 2 6c0 2.7 4 3 6 3-1.1.6-2 1.5-2 3 0 1.6.9 2.5 2.2 3.1-3.6.3-8.2 1.4-8.2 5.4C0 26 8.7 26 11.5 26c2.8 0 11.5 0 11.5-5.5 0-2.8-2.3-4.2-4.9-4.9zM12.5 1c2.3 0 3.5.4 3.5 1s-1.2 1-3.5 1S9 2.6 9 2s1.2-1 3.5-1zM3 6c0-1.3 1.9-2 5.5-2s5.5.7 5.5 2-1.9 2-5.5 2S3 7.3 3 6zm4 6c0-2 2.3-3 7-3s7 1 7 3-2.3 3-7 3-7-1-7-3zm4.5 13C4.4 25 1 23.5 1 20.5S4.4 16 11.5 16 22 17.5 22 20.5 18.6 25 11.5 25z"/></svg>