<svg xmlns="http://www.w3.org/2000/svg" viewBox="0 0 12 20"><path d="M1.9 9.9c.3 0 .5-.2.5-.5V7.3c0-.2.2-.4.4-.4h6.1c.2 0 .4.2.4.4v2.1c0 .3.2.5.5.5s.5-.2.5-.5V7.3c0-.7-.5-1.3-1.2-1.4V4.8c0-.5-.4-.9-.9-.9h-1v-3c.1-.5-.4-.9-.9-.9h-.8c-.5 0-1 .4-1 .9v2.9h-1c-.5.1-.9.5-.9 1v1.1c-.7.1-1.2.7-1.2 1.4v2.1c0 .3.2.5.5.5zM5.5 1l.8-.1v2.9h-.8V1zm2.7 3.8v1.1H3.6v-1l4.6-.1z"/><path d="M10.8 16.1l1-3.7c.1-.5-.1-1-.6-1.2L6.1 9.1H6h-.1-.1-.1L.6 11.2c-.5.2-.7.7-.6 1.2l1 3.7c-.6.2-1 .8-1 1.5 0 .3.2.5.5.5s.5-.2.5-.5.3-.6.6-.6.6.3.6.6c0 .9.7 1.6 1.6 1.6.9 0 1.6-.7 1.6-1.6 0-.3.3-.6.6-.6s.6.3.6.6c0 .9.7 1.6 1.6 1.6.9 0 1.6-.7 1.6-1.6 0-.3.3-.6.6-.6s.6.3.6.6.2.5.5.5.5-.2.5-.5c-.2-.7-.6-1.3-1.2-1.5zm-6.4 1.4c0 .3-.3.6-.6.6s-.6-.3-.6-.6c0-.7-.5-1.3-1.1-1.5L1 12.1l4.4-1.8V16c-.6.3-1 .8-1 1.5zm3.7.6c-.3 0-.6-.3-.6-.6 0-.7-.5-1.3-1.1-1.5v-5.7l4.4 1.8L9.7 16c-.6.2-1.1.8-1.1 1.5.1.4-.2.6-.5.6z"/><path d="M8.6 11.9c-.2-.2-.5-.1-.7.1h-.2s-.1-.1-.1-.2c.2-.2.1-.5-.1-.7-.2-.1-.5 0-.6.2-.2.2-.2.5-.2.8.1.3.2.6.5.8.2.1.4.2.7.2h.2c.3 0 .6-.2.7-.5.1-.2.1-.5-.2-.7zM4.9 11.3c-.2-.2-.5-.3-.7-.1-.2.2-.3.5-.2.7v.1s-.1.1-.2 0c-.2-.2-.5-.3-.7-.1-.2.2-.3.5-.1.7.2.2.4.4.7.5h.2c.2 0 .5-.1.7-.2.2-.2.4-.5.4-.8.1-.3 0-.5-.1-.8z"/></svg>