<?xml version="1.0" encoding="utf-8"?>
<!-- Generator: Adobe Illustrator 22.1.0, SVG Export Plug-In . SVG Version: 6.00 Build 0)  -->
<svg version="1.1" id="Слой_1" xmlns="http://www.w3.org/2000/svg" xmlns:xlink="http://www.w3.org/1999/xlink" x="0px" y="0px"
	 viewBox="0 0 21 21" style="enable-background:new 0 0 21 21;" xml:space="preserve">
<style type="text/css">
	.st0{fill:#FFFFFF;filter:url(#Adobe_OpacityMaskFilter);}
	.st1{mask:url(#mask0_1_);}
	.st2{fill:#85838B;}
	.st3{fill:#FFFFFF;}
	.st4{fill:#D5D5D5;}
	.st5{fill:#EAEAEA;}
</style>
<defs>
	<filter id="Adobe_OpacityMaskFilter" filterUnits="userSpaceOnUse" x="0" y="0" width="21" height="21">
		<feColorMatrix  type="matrix" values="1 0 0 0 0  0 1 0 0 0  0 0 1 0 0  0 0 0 1 0"/>
	</filter>
</defs>
<mask maskUnits="userSpaceOnUse" x="0" y="0" width="21" height="21" id="mask0_1_">
	<path class="st0" d="M10.5,0C4.7,0,0,4.7,0,10.5C0,16.3,4.7,21,10.5,21C16.3,21,21,16.3,21,10.5C21,4.7,16.3,0,10.5,0z"/>
</mask>
<g class="st1">
	<path class="st2" d="M10.5,0C4.7,0,0,4.7,0,10.5C0,16.3,4.7,21,10.5,21C16.3,21,21,16.3,21,10.5C21,4.7,16.3,0,10.5,0z"/>
</g>
<path class="st3" d="M15.6,6l-1.9,9.5c0,0-0.3,0.7-1,0.3l-4.3-3.3l-1.6-0.8l-2.7-0.9c0,0-0.4-0.1-0.4-0.5c0-0.3,0.5-0.5,0.5-0.5
	l10.5-4.1C14.8,5.8,15.6,5.4,15.6,6z"/>
<path class="st4" d="M8.1,15.4c0,0-0.1,0-0.3-0.5c-0.2-0.5-1-3.1-1-3.1l6.4-4c0,0,0.4-0.2,0.4,0c0,0,0.1,0-0.1,0.2
	c-0.2,0.2-5,4.5-5,4.5"/>
<path class="st5" d="M10.1,13.8l-1.7,1.6c0,0-0.1,0.1-0.3,0l0.3-2.9"/>
</svg>
