<?xml version="1.0" encoding="utf-8"?>
<!-- Generator: Adobe Illustrator 22.1.0, SVG Export Plug-In . SVG Version: 6.00 Build 0)  -->
<svg version="1.1" id="Слой_1" xmlns="http://www.w3.org/2000/svg" xmlns:xlink="http://www.w3.org/1999/xlink" x="0px" y="0px"
	 viewBox="0 0 20.8 22.4" style="enable-background:new 0 0 20.8 22.4;" xml:space="preserve">
<g>
	<path d="M18.4,2.2C17.9,1.7,15.7,0,10.8,0c0,0-5.8-0.4-8.6,2.3C0.6,3.9,0.1,6.3,0,9.2C0,12.1-0.1,17.5,5,19l0,0l0,2.3
		c0,0,0,0.9,0.6,1.1c0.7,0.2,1.1-0.5,1.8-1.2c0.4-0.4,0.9-1,1.3-1.5c3.5,0.3,6.2-0.4,6.5-0.5c0.7-0.2,4.7-0.8,5.4-6.2
		C21.2,7.4,20.2,3.8,18.4,2.2z M19,12.6c-0.6,4.6-3.8,4.8-4.4,5c-0.3,0.1-2.6,0.7-5.6,0.5l-3.2,3.6l0-4.1l0,0
		c-4.3-1.2-4.2-5.9-4.2-8.3s0.5-4.4,1.8-5.8c2.4-2.2,7.3-1.9,7.3-1.9c4.1,0,6.1,1.3,6.6,1.7C18.8,4.7,19.6,7.9,19,12.6z"/>
	<path  d="M14.3,12.4c-0.3-0.2-0.8-0.5-1.1-0.7c-0.5-0.3-1-0.1-1.2,0.2l-0.4,0.5c-0.2,0.3-0.6,0.2-0.6,0.2
		c-0.6-0.2-1.3-0.5-2-1.2c-0.7-0.7-1.1-1.4-1.3-2.1l0,0c0-0.3,0-0.4,0.1-0.6l0,0c0.3-0.3,0.8-0.6,0.9-0.9C9,7.3,8.1,6.1,8,5.9
		c0,0-0.7-0.9-0.9-1c-0.3-0.2-0.6-0.3-1-0.1l0,0C4.9,5.6,4.5,6,4.6,6.7L4.7,7c0.6,1.8,1.7,3.8,3.3,5.5c1.6,1.7,3.4,2.7,5.2,3.4
		c0.5,0.2,0.9,0,1.4-0.4l0,0c0.4-0.3,0.7-0.7,0.9-1.1l0,0c0.2-0.4,0.1-0.8-0.2-1.1C15.3,13.3,14.6,12.7,14.3,12.4z"/>
	<path d="M10.9,7.5c0,0.1,0.1,0.1,0.1,0.1c0.4,0,0.8,0.2,1,0.4c0.2,0.2,0.4,0.6,0.4,1.1c0,0.1,0.1,0.1,0.1,0.1h0
		c0.1,0,0.1-0.1,0.1-0.1c0-0.5-0.2-1-0.5-1.2c-0.3-0.3-0.7-0.5-1.2-0.5C11,7.4,10.9,7.5,10.9,7.5z"/>
	<path d="M13.7,9.6c0,0.1,0.1,0.1,0.1,0.1h0c0.1,0,0.1-0.1,0.1-0.1c0-1-0.3-1.8-0.9-2.5c-0.6-0.7-1.4-1-2.5-1.1
		c-0.1,0-0.1,0-0.1,0.1c0,0.1,0,0.1,0.1,0.1c0.5,0,0.9,0.1,1.3,0.3c0.4,0.2,0.7,0.4,1,0.7C13.5,7.9,13.8,8.7,13.7,9.6z"/>
	<path d="M10.2,5c0.7,0,1.3,0.1,1.9,0.4c0.6,0.2,1.1,0.6,1.5,1c0.5,0.5,0.8,1,1,1.6c0.2,0.6,0.4,1.3,0.4,2.1
		c0,0.1,0.1,0.1,0.1,0.1h0c0.1,0,0.1-0.1,0.1-0.1c0-0.8-0.1-1.6-0.4-2.2c-0.2-0.7-0.6-1.2-1.1-1.7c-1-1-2.2-1.5-3.6-1.5
		c-0.1,0-0.1,0.1-0.1,0.1C10.1,4.9,10.2,5,10.2,5z"/>
</g>
</svg>
