<?xml version="1.0" encoding="utf-8"?>
<!-- Generator: Adobe Illustrator 22.1.0, SVG Export Plug-In . SVG Version: 6.00 Build 0)  -->
<svg version="1.1" id="Слой_1" xmlns="http://www.w3.org/2000/svg" xmlns:xlink="http://www.w3.org/1999/xlink" x="0px" y="0px"
	 viewBox="0 0 21 21.2" style="enable-background:new 0 0 21 21.2;" xml:space="preserve">
<g>
	<path d="M10.7,0C4.9,0,0.3,4.6,0.3,10.3c0,2.8,1.5,5.4,1.5,5.4L0,21.2l5.7-1.8c0,0,2.1,1.3,5,1.3
		c5.7,0,10.3-4.6,10.3-10.3C21,4.6,16.4,0,10.7,0z M10.7,19c-2.7,0-4.8-1.4-4.8-1.4l-3.3,1.1l1.1-3.2c0,0-1.7-2.3-1.7-5.2
		c0-4.8,3.9-8.7,8.7-8.7c4.8,0,8.7,3.9,8.7,8.7C19.3,15.1,15.5,19,10.7,19z"/>
	<path d="M15.7,12.5c0,0-1.7-0.8-2-1c-0.3-0.2-0.5,0.1-0.5,0.1s-0.5,0.7-0.7,0.9c-0.2,0.2-0.3,0.4-0.7,0.3
		c-0.4-0.1-1.3-0.6-2-1.2c-0.7-0.6-1.2-1.5-1.4-1.7c-0.2-0.3,0-0.4,0-0.4s0.4-0.5,0.7-0.8c0.2-0.3,0.1-0.6,0-0.7
		c-0.1-0.1-0.7-1.7-0.8-2C8.2,5.7,8,5.7,8,5.7H7.1C7,5.7,6.7,5.8,6.7,5.8c-0.8,0.5-1,1.8-1,2.1c0,0.3,0,0.8,0.4,1.8
		c0.4,1,1.5,2.3,2.9,3.5c1.3,1.2,3.4,1.8,4,2c0.6,0.2,1.9-0.1,2.5-0.8c0.6-0.7,0.5-1.4,0.5-1.6C15.9,12.6,15.7,12.5,15.7,12.5z"/>
</g>
</svg>
